<svg width="125" height="184" viewBox="0 0 125 184" fill="none" xmlns="http://www.w3.org/2000/svg">
<path d="M62.1594 0.5C74.0196 0.5 84.4603 2.59413 93.469 6.79785C102.476 11.0006 109.488 16.9093 114.488 24.5273C119.491 32.1516 121.985 41.0651 121.985 51.248C121.985 57.7187 120.858 64.1071 118.607 70.4102L118.606 70.4141C116.354 76.5557 112.901 82.8466 108.255 89.2871C103.772 95.5634 97.9328 102.393 90.7454 109.777L90.7463 109.778L50.6594 151.245H123.659V183.5H1.85571V153.947L1.99634 153.802L49.8391 104.274C59.2456 94.5 66.3343 86.815 71.1086 81.2168L71.1096 81.2158C76.0427 75.4581 79.3561 70.6921 81.0813 66.9092L81.0842 66.9014L81.0881 66.8936C82.9731 63.1046 83.9065 59.4138 83.9065 55.8164C83.9065 49.3651 81.7989 44.3854 77.6223 40.8096L77.6145 40.8027L77.6077 40.7959C73.5657 37.0461 68.4298 35.1592 62.1594 35.1592C55.7268 35.1592 50.0117 37.0484 44.9973 40.8281L44.9895 40.835C39.996 44.4422 36.3 50.0284 33.9309 57.6475L33.7805 58.1328L33.2981 57.9746L1.00415 47.3955L0.579346 47.2568L0.670166 46.8203C2.60078 37.4419 6.6249 29.2673 12.7444 22.3076C18.8547 15.3585 26.2523 10.0257 34.9309 6.31055C43.6046 2.43722 52.6823 0.5 62.1594 0.5Z" fill="url(#paint0_linear_4136_676)" fill-opacity="0.95" stroke="url(#paint1_linear_4136_676)"/>
<defs>
<linearGradient id="paint0_linear_4136_676" x1="62.1594" y1="1" x2="62.1594" y2="183" gradientUnits="userSpaceOnUse">
<stop stop-color="#2E2944"/>
<stop offset="1" stop-color="#151126" stop-opacity="0"/>
</linearGradient>
<linearGradient id="paint1_linear_4136_676" x1="62.1594" y1="1" x2="62.1594" y2="183" gradientUnits="userSpaceOnUse">
<stop stop-color="#5C5084"/>
<stop offset="1" stop-color="#15121E"/>
</linearGradient>
</defs>
</svg>
