<svg width="133" height="184" viewBox="0 0 133 184" fill="none" xmlns="http://www.w3.org/2000/svg">
<path d="M124.451 0.5V30.0391L124.327 30.1807L90.2485 68.9004C96.0612 69.9852 101.357 71.8869 106.132 74.6104H106.133C114.239 78.9815 120.486 85.1382 124.867 93.0742L125.286 93.8223C129.549 101.592 131.673 110.566 131.673 120.73C131.673 132.677 128.762 143.427 122.933 152.968C117.109 162.501 109.179 170.014 99.1538 175.505L99.1489 175.508C89.1174 180.84 77.7197 183.5 64.9692 183.5C54.9553 183.5 45.4218 181.644 36.3726 177.933L36.3657 177.93C27.3155 174.056 19.6317 168.646 13.3218 161.698C7.00291 154.74 2.78997 146.567 0.685059 137.188L0.586426 136.749L1.01416 136.605L33.9956 125.546L34.4614 125.39L34.6265 125.853C37.3284 133.471 41.2875 139.23 46.4858 143.166L46.9761 143.515C52.0731 147.061 58.064 148.841 64.9692 148.841C70.8454 148.841 75.816 147.73 79.8999 145.534L79.9067 145.531C83.8957 143.466 87.045 140.644 89.3657 137.066L89.8188 136.341C92.1739 132.261 93.3589 127.543 93.3589 122.173C93.3589 116.798 92.172 112.247 89.8237 108.494L89.8169 108.483L89.811 108.473C87.6168 104.56 84.4057 101.584 80.1606 99.543L80.1499 99.5381L80.1401 99.5332C76.058 97.338 71.0084 96.2266 64.9692 96.2266C61.4767 96.2266 57.9831 96.6227 54.4878 97.416C50.9914 98.2096 47.8202 99.3196 44.9712 100.742L44.5171 100.969L44.2964 100.511L35.6304 82.4795L35.4829 82.1738L35.7124 81.9248L80.9233 32.7549H11.5063V0.5H124.451Z" fill="url(#paint0_linear_4136_674)" fill-opacity="0.95" stroke="url(#paint1_linear_4136_674)"/>
<defs>
<linearGradient id="paint0_linear_4136_674" x1="66.1733" y1="1" x2="66.1733" y2="183" gradientUnits="userSpaceOnUse">
<stop stop-color="#2E2944"/>
<stop offset="1" stop-color="#151126" stop-opacity="0"/>
</linearGradient>
<linearGradient id="paint1_linear_4136_674" x1="66.1733" y1="1" x2="66.1733" y2="183" gradientUnits="userSpaceOnUse">
<stop stop-color="#5C5084"/>
<stop offset="1" stop-color="#15121E"/>
</linearGradient>
</defs>
</svg>
