<svg width="6" height="25" viewBox="0 0 6 25" fill="none" xmlns="http://www.w3.org/2000/svg">
<path d="M2.90845 24.8864C2.11132 24.8864 1.4273 24.5933 0.856377 24.0071C0.285459 23.4209 0 22.7186 0 21.9001C0 21.0816 0.285459 20.3792 0.856377 19.793C1.4273 19.2068 2.11132 18.9137 2.90845 18.9137C3.70558 18.9137 4.38961 19.2068 4.96052 19.793C5.53144 20.3792 5.8169 21.0816 5.8169 21.9001C5.8169 22.442 5.68225 22.9398 5.41295 23.3933C5.15442 23.8467 4.80433 24.2117 4.36268 24.4883C3.93179 24.7537 3.44705 24.8864 2.90845 24.8864ZM2.90845 5.97274C2.11132 5.97274 1.4273 5.67964 0.856377 5.09342C0.285459 4.50721 0 3.80486 0 2.98637C0 2.16788 0.285459 1.46553 0.856377 0.87932C1.4273 0.293107 2.11132 0 2.90845 0C3.70558 0 4.38961 0.293107 4.96052 0.87932C5.53144 1.46553 5.8169 2.16788 5.8169 2.98637C5.8169 3.52834 5.68225 4.02607 5.41295 4.47956C5.15442 4.93304 4.80433 5.29805 4.36268 5.57456C3.93179 5.84002 3.44705 5.97274 2.90845 5.97274Z" fill="#CFCFCF"/>
</svg>
