<svg width="22" height="22" viewBox="0 0 22 22" fill="none" xmlns="http://www.w3.org/2000/svg">
<path d="M20.1781 3.48418C19.8839 3.18945 19.4065 3.18895 19.1123 3.48293L10.0696 12.5018L6.80703 8.95828C6.52512 8.65227 6.04848 8.63242 5.74195 8.9143C5.43566 9.19621 5.41605 9.67309 5.69797 9.97937L9.49195 14.0997C9.6309 14.2507 9.82535 14.3384 10.0304 14.3427C10.0359 14.3429 10.0412 14.3429 10.0465 14.3429C10.2457 14.3429 10.4374 14.2638 10.5786 14.1231L20.1766 4.55023C20.4716 4.25629 20.4721 3.77891 20.1781 3.48418Z" fill="#2CCC78"/>
<path d="M19.9962 9.99621C19.5799 9.99621 19.2425 10.3336 19.2425 10.75C19.2425 15.4329 15.4329 19.2425 10.75 19.2425C6.06734 19.2425 2.25754 15.4329 2.25754 10.75C2.25754 6.06734 6.06734 2.25754 10.75 2.25754C11.1663 2.25754 11.5038 1.92012 11.5038 1.50379C11.5038 1.08742 11.1663 0.75 10.75 0.75C5.23594 0.75 0.75 5.23594 0.75 10.75C0.75 16.2638 5.23594 20.75 10.75 20.75C16.2638 20.75 20.75 16.2638 20.75 10.75C20.75 10.3337 20.4126 9.99621 19.9962 9.99621Z" fill="#2CCC78"/>
<path d="M20.1781 3.48418C19.8839 3.18945 19.4065 3.18895 19.1123 3.48293L10.0696 12.5018L6.80703 8.95828C6.52512 8.65227 6.04848 8.63242 5.74195 8.9143C5.43566 9.19621 5.41605 9.67309 5.69797 9.97937L9.49195 14.0997C9.6309 14.2507 9.82535 14.3384 10.0304 14.3427C10.0359 14.3429 10.0412 14.3429 10.0465 14.3429C10.2457 14.3429 10.4374 14.2638 10.5786 14.1231L20.1766 4.55023C20.4716 4.25629 20.4721 3.77891 20.1781 3.48418Z" stroke="#2CCC78" stroke-width="1.5"/>
<path d="M19.9962 9.99621C19.5799 9.99621 19.2425 10.3336 19.2425 10.75C19.2425 15.4329 15.4329 19.2425 10.75 19.2425C6.06734 19.2425 2.25754 15.4329 2.25754 10.75C2.25754 6.06734 6.06734 2.25754 10.75 2.25754C11.1663 2.25754 11.5038 1.92012 11.5038 1.50379C11.5038 1.08742 11.1663 0.75 10.75 0.75C5.23594 0.75 0.75 5.23594 0.75 10.75C0.75 16.2638 5.23594 20.75 10.75 20.75C16.2638 20.75 20.75 16.2638 20.75 10.75C20.75 10.3337 20.4126 9.99621 19.9962 9.99621Z" stroke="#2CCC78" stroke-width="1.5"/>
</svg>
