<svg width="31" height="24" viewBox="0 0 31 24" fill="none" xmlns="http://www.w3.org/2000/svg">
<path opacity="0.3" d="M26.2429 1.98949C24.2671 1.06868 22.1483 0.390236 19.9329 0.0016305C19.8926 -0.00587226 19.8523 0.0128846 19.8315 0.0503369C19.559 0.542628 19.2572 1.18479 19.0458 1.68957C16.6631 1.32722 14.2926 1.32722 11.9587 1.68957C11.7473 1.1736 11.4345 0.542628 11.1608 0.0503369C11.14 0.0141146 11.0997 -0.0046423 11.0594 0.0016305C8.84529 0.388945 6.72651 1.06739 4.74941 1.98949C4.73227 1.99699 4.71762 2.00948 4.70787 2.02571C0.689009 8.12416 -0.411976 14.0727 0.128102 19.9475C0.130524 19.9762 0.146448 20.0037 0.168427 20.0212C2.81996 21.999 5.38848 23.1997 7.90923 23.9956C7.94956 24.0081 7.9923 23.9932 8.01797 23.9594C8.61424 23.1323 9.14578 22.2602 9.60152 21.3431C9.6284 21.2894 9.60273 21.2257 9.54775 21.2044C8.70464 20.8796 7.90185 20.4835 7.12957 20.0337C7.06848 19.9975 7.06357 19.9088 7.11982 19.8663C7.28233 19.7426 7.4449 19.6139 7.60008 19.484C7.62817 19.4602 7.66729 19.4552 7.70028 19.4702C12.7736 21.8229 18.2662 21.8229 23.2796 19.4702C23.3126 19.4539 23.3517 19.459 23.381 19.4827C23.5363 19.6126 23.6988 19.7426 23.8625 19.8662C23.9187 19.9087 23.915 19.9975 23.854 20.0337C23.0817 20.4922 22.2789 20.8795 21.4346 21.2031C21.3796 21.2243 21.3551 21.2894 21.3821 21.343C21.8476 22.2589 22.3792 23.131 22.9644 23.9581C22.9889 23.9931 23.0328 24.0081 23.0732 23.9956C25.6061 23.1997 28.1747 21.999 30.8262 20.0211C30.8494 20.0037 30.8641 19.9774 30.8665 19.9487C31.5129 13.1568 29.7839 7.25698 26.2831 2.02688C26.2746 2.00948 26.26 1.99699 26.2429 1.98949ZM10.3593 16.3704C8.83185 16.3704 7.57326 14.9461 7.57326 13.1968C7.57326 11.4476 8.80738 10.0233 10.3593 10.0233C11.9233 10.0233 13.1697 11.4601 13.1452 13.1968C13.1452 14.9461 11.911 16.3704 10.3593 16.3704ZM20.6599 16.3704C19.1326 16.3704 17.874 14.9461 17.874 13.1968C17.874 11.4476 19.1081 10.0233 20.6599 10.0233C22.224 10.0233 23.4703 11.4601 23.4459 13.1968C23.4459 14.9461 22.224 16.3704 20.6599 16.3704Z" fill="white"/>
</svg>
