<svg width="21" height="13" viewBox="0 0 21 13" fill="none" xmlns="http://www.w3.org/2000/svg">
<path d="M11.3194 12.647L20.6645 2.7998C20.8808 2.57204 21 2.26801 21 1.94383C21 1.61965 20.8808 1.31562 20.6645 1.08786L19.9765 0.36268C19.5281 -0.1092 18.7995 -0.1092 18.3518 0.36268L10.5044 8.63164L2.6482 0.353504C2.43188 0.12575 2.14352 -8.24243e-07 1.83603 -8.37684e-07C1.52821 -8.51139e-07 1.23984 0.12575 1.02336 0.353504L0.335484 1.07868C0.119169 1.30662 -7.0396e-08 1.61047 -8.45664e-08 1.93465C-9.87368e-08 2.25883 0.119169 2.56287 0.335483 2.79062L9.68912 12.647C9.90611 12.8753 10.1958 13.0007 10.5038 13C10.813 13.0007 11.1026 12.8753 11.3194 12.647Z" fill="white"/>
</svg>
