<svg width="10" height="10" viewBox="0 0 10 10" fill="none" xmlns="http://www.w3.org/2000/svg">
<path d="M0.50391 1.99321C0.533099 1.78575 0.72038 1.64156 0.938256 1.67211C1.15231 1.72146 1.30547 1.9165 1.30355 2.12994V2.14098L1.35396 5.68826V5.69102C1.35677 5.84253 1.3336 5.9918 1.28559 6.13227L1.21447 6.33322L2.03966 6.85319L8.27932 0.613523C8.29459 0.597869 8.31122 0.583433 8.32904 0.57071C8.4958 0.451694 8.7516 0.482514 8.89735 0.67498C9.02567 0.865743 8.99233 1.10023 8.84763 1.23431L8.84004 1.24053L2.62385 7.45671L3.15004 8.27983L3.40553 8.18592C3.50066 8.15691 3.59928 8.13839 3.6997 8.13206L3.80121 8.12998L7.34779 8.18661H7.36022C7.5722 8.1847 7.76569 8.33599 7.81666 8.54776C7.81787 8.55956 7.81993 8.57125 7.82012 8.58298C7.82351 8.80236 7.65128 8.97387 7.43204 8.97106L1.01905 8.87921L1.01836 8.8799C0.787884 8.8765 0.594756 8.68219 0.591608 8.45177L0.499766 2.04707C0.499858 2.02913 0.501425 2.01096 0.50391 1.99321Z" fill="#2CCC78" stroke="#2CCC78"/>
</svg>
