<svg width="26" height="26" viewBox="0 0 26 26" fill="none" xmlns="http://www.w3.org/2000/svg">
<g opacity="0.3">
<path d="M19.5 0H6.5C2.86 0 0 2.86 0 6.5V19.5C0 23.14 2.86 26 6.5 26H19.5C23.14 26 26 23.14 26 19.5V6.5C26 2.86 23.14 0 19.5 0ZM23.4 19.5C23.4 21.71 21.71 23.4 19.5 23.4H6.5C4.29 23.4 2.6 21.71 2.6 19.5V6.5C2.6 4.29 4.29 2.6 6.5 2.6H19.5C21.71 2.6 23.4 4.29 23.4 6.5V19.5Z" fill="white"/>
<path d="M13 6.5C9.36 6.5 6.5 9.36 6.5 13C6.5 16.64 9.36 19.5 13 19.5C16.64 19.5 19.5 16.64 19.5 13C19.5 9.36 16.64 6.5 13 6.5ZM13 16.9C10.79 16.9 9.1 15.21 9.1 13C9.1 10.79 10.79 9.1 13 9.1C15.21 9.1 16.9 10.79 16.9 13C16.9 15.21 15.21 16.9 13 16.9Z" fill="white"/>
<path d="M19.5 7.8C20.218 7.8 20.8 7.21797 20.8 6.5C20.8 5.78203 20.218 5.2 19.5 5.2C18.782 5.2 18.2 5.78203 18.2 6.5C18.2 7.21797 18.782 7.8 19.5 7.8Z" fill="white"/>
</g>
</svg>
