<svg width="452" height="59" viewBox="0 0 452 59" fill="none" xmlns="http://www.w3.org/2000/svg">
<path opacity="0.5" d="M207.144 17V7.315H213.124V8.29H208.184V11.657H212.734V12.632H208.184V17H207.144ZM217.564 17.156C216.905 17.156 216.307 17 215.77 16.688C215.232 16.3673 214.803 15.934 214.483 15.388C214.171 14.8333 214.015 14.205 214.015 13.503C214.015 12.8097 214.171 12.19 214.483 11.644C214.795 11.098 215.215 10.669 215.744 10.357C216.281 10.0363 216.888 9.876 217.564 9.876C218.24 9.876 218.842 10.032 219.371 10.344C219.908 10.656 220.328 11.085 220.632 11.631C220.944 12.177 221.1 12.801 221.1 13.503C221.1 14.2137 220.939 14.8463 220.619 15.401C220.298 15.947 219.869 16.376 219.332 16.688C218.803 17 218.214 17.156 217.564 17.156ZM217.564 16.181C218.032 16.181 218.452 16.064 218.825 15.83C219.206 15.596 219.505 15.2753 219.722 14.868C219.947 14.4607 220.06 14.0057 220.06 13.503C220.06 13.0003 219.947 12.5497 219.722 12.151C219.505 11.7523 219.206 11.436 218.825 11.202C218.452 10.968 218.032 10.851 217.564 10.851C217.096 10.851 216.671 10.968 216.29 11.202C215.917 11.436 215.618 11.7523 215.393 12.151C215.167 12.5497 215.055 13.0003 215.055 13.503C215.055 14.0057 215.167 14.4607 215.393 14.868C215.618 15.2753 215.917 15.596 216.29 15.83C216.671 16.064 217.096 16.181 217.564 16.181ZM222.819 17V10.032H223.794V11.176L223.664 11.007C223.829 10.6777 224.076 10.4177 224.405 10.227C224.743 10.0363 225.151 9.941 225.627 9.941H226.069V10.916H225.458C224.956 10.916 224.553 11.072 224.249 11.384C223.946 11.696 223.794 12.138 223.794 12.71V17H222.819ZM229.564 17V7.315H235.804V8.29H230.604V11.657H235.544V12.632H230.604V16.025H235.804V17H229.564ZM236.523 17L238.967 13.516L236.536 10.032H237.732L239.89 13.165H239.227L241.372 10.032H242.568L240.137 13.516L242.568 17H241.372L239.227 13.867H239.89L237.732 17H236.523ZM246.725 17.156C246.066 17.156 245.468 17 244.931 16.688C244.394 16.3673 243.965 15.934 243.644 15.388C243.332 14.8333 243.176 14.205 243.176 13.503C243.176 12.8097 243.332 12.19 243.644 11.644C243.956 11.098 244.376 10.669 244.905 10.357C245.442 10.0363 246.049 9.876 246.725 9.876C247.401 9.876 248.003 10.032 248.532 10.344C249.069 10.656 249.49 11.085 249.793 11.631C250.105 12.177 250.261 12.801 250.261 13.503C250.261 14.2137 250.101 14.8463 249.78 15.401C249.459 15.947 249.03 16.376 248.493 16.688C247.964 17 247.375 17.156 246.725 17.156ZM246.725 16.181C247.193 16.181 247.613 16.064 247.986 15.83C248.367 15.596 248.666 15.2753 248.883 14.868C249.108 14.4607 249.221 14.0057 249.221 13.503C249.221 13.0003 249.108 12.5497 248.883 12.151C248.666 11.7523 248.367 11.436 247.986 11.202C247.613 10.968 247.193 10.851 246.725 10.851C246.257 10.851 245.832 10.968 245.451 11.202C245.078 11.436 244.779 11.7523 244.554 12.151C244.329 12.5497 244.216 13.0003 244.216 13.503C244.216 14.0057 244.329 14.4607 244.554 14.868C244.779 15.2753 245.078 15.596 245.451 15.83C245.832 16.064 246.257 16.181 246.725 16.181ZM255.126 17.156C254.476 17.156 253.891 17 253.371 16.688C252.851 16.3673 252.44 15.934 252.136 15.388C251.842 14.8333 251.694 14.2093 251.694 13.516C251.694 12.814 251.842 12.19 252.136 11.644C252.44 11.098 252.847 10.669 253.358 10.357C253.878 10.0363 254.468 9.876 255.126 9.876C255.724 9.876 256.257 10.006 256.725 10.266C257.193 10.526 257.562 10.877 257.83 11.319L257.674 11.592V7.159H258.649V17H257.674V15.44L257.83 15.583C257.588 16.0857 257.224 16.4757 256.738 16.753C256.262 17.0217 255.724 17.156 255.126 17.156ZM255.178 16.181C255.646 16.181 256.067 16.064 256.439 15.83C256.821 15.596 257.12 15.2797 257.336 14.881C257.562 14.4737 257.674 14.0187 257.674 13.516C257.674 13.0133 257.562 12.5627 257.336 12.164C257.12 11.7567 256.821 11.436 256.439 11.202C256.067 10.968 255.646 10.851 255.178 10.851C254.719 10.851 254.303 10.968 253.93 11.202C253.558 11.436 253.263 11.7523 253.046 12.151C252.838 12.5497 252.734 13.0047 252.734 13.516C252.734 14.0187 252.838 14.4737 253.046 14.881C253.263 15.2797 253.553 15.596 253.917 15.83C254.29 16.064 254.71 16.181 255.178 16.181ZM263.121 17.156C262.636 17.156 262.194 17.0433 261.795 16.818C261.397 16.584 261.08 16.2633 260.846 15.856C260.621 15.44 260.508 14.9633 260.508 14.426V10.032H261.483V14.309C261.483 14.6817 261.557 15.011 261.704 15.297C261.86 15.5743 262.073 15.791 262.341 15.947C262.619 16.103 262.935 16.181 263.29 16.181C263.646 16.181 263.962 16.103 264.239 15.947C264.517 15.7823 264.733 15.5527 264.889 15.258C265.045 14.9547 265.123 14.595 265.123 14.179V10.032H266.098V17H265.123V15.648L265.344 15.7C265.18 16.1507 264.898 16.506 264.499 16.766C264.101 17.026 263.641 17.156 263.121 17.156ZM270.522 17.156C269.854 17.156 269.269 16.987 268.767 16.649C268.264 16.311 267.9 15.8517 267.675 15.271L268.494 14.881C268.693 15.3057 268.97 15.6437 269.326 15.895C269.69 16.1463 270.088 16.272 270.522 16.272C270.938 16.272 271.289 16.1723 271.575 15.973C271.861 15.765 272.004 15.4963 272.004 15.167C272.004 14.9243 271.934 14.7337 271.796 14.595C271.657 14.4477 271.497 14.335 271.315 14.257C271.133 14.179 270.972 14.1227 270.834 14.088L269.833 13.802C269.191 13.62 268.728 13.3643 268.442 13.035C268.156 12.7057 268.013 12.3243 268.013 11.891C268.013 11.4837 268.117 11.1283 268.325 10.825C268.533 10.5217 268.814 10.2877 269.17 10.123C269.525 9.95833 269.919 9.876 270.353 9.876C270.942 9.876 271.475 10.032 271.952 10.344C272.437 10.6473 272.779 11.072 272.979 11.618L272.147 12.008C271.973 11.618 271.722 11.3147 271.393 11.098C271.072 10.8727 270.712 10.76 270.314 10.76C269.924 10.76 269.612 10.8597 269.378 11.059C269.144 11.2583 269.027 11.5097 269.027 11.813C269.027 12.047 269.087 12.2333 269.209 12.372C269.33 12.5107 269.469 12.6147 269.625 12.684C269.789 12.7533 269.932 12.8053 270.054 12.84L271.211 13.178C271.774 13.3427 272.212 13.5983 272.524 13.945C272.844 14.2917 273.005 14.699 273.005 15.167C273.005 15.5483 272.896 15.8907 272.68 16.194C272.472 16.4973 272.181 16.7357 271.809 16.909C271.436 17.0737 271.007 17.156 270.522 17.156ZM208.925 35L206.143 25.315H207.196L209.601 33.986H209.38L211.85 25.315H212.955L215.412 33.986H215.178L217.596 25.315H218.649L215.867 35H214.762L212.279 26.29H212.513L210.03 35H208.925ZM221.292 35.156C220.85 35.156 220.456 35.0737 220.109 34.909C219.763 34.7357 219.49 34.5017 219.29 34.207C219.091 33.9123 218.991 33.5743 218.991 33.193C218.991 32.829 219.069 32.4997 219.225 32.205C219.381 31.9017 219.624 31.646 219.953 31.438C220.283 31.23 220.703 31.0827 221.214 30.996L223.944 30.541V31.425L221.448 31.841C220.946 31.9277 220.582 32.088 220.356 32.322C220.14 32.556 220.031 32.8333 220.031 33.154C220.031 33.466 220.153 33.7303 220.395 33.947C220.647 34.1637 220.967 34.272 221.357 34.272C221.834 34.272 222.25 34.1723 222.605 33.973C222.961 33.765 223.238 33.4877 223.437 33.141C223.637 32.7943 223.736 32.4087 223.736 31.984V30.216C223.736 29.8 223.585 29.462 223.281 29.202C222.978 28.942 222.584 28.812 222.098 28.812C221.674 28.812 221.301 28.9203 220.98 29.137C220.66 29.345 220.421 29.618 220.265 29.956L219.381 29.475C219.511 29.1803 219.715 28.9117 219.992 28.669C220.278 28.4263 220.603 28.2357 220.967 28.097C221.331 27.9497 221.708 27.876 222.098 27.876C222.61 27.876 223.06 27.9757 223.45 28.175C223.849 28.3743 224.157 28.6517 224.373 29.007C224.599 29.3537 224.711 29.7567 224.711 30.216V35H223.736V33.609L223.879 33.752C223.758 34.012 223.567 34.2503 223.307 34.467C223.056 34.675 222.757 34.844 222.41 34.974C222.072 35.0953 221.7 35.156 221.292 35.156ZM226.717 35V25.159H227.692V35H226.717ZM229.688 35V25.159H230.663V35H229.688ZM235.83 35.156C235.18 35.156 234.591 35 234.062 34.688C233.542 34.3673 233.131 33.9297 232.827 33.375C232.524 32.8203 232.372 32.192 232.372 31.49C232.372 30.788 232.52 30.1683 232.814 29.631C233.109 29.085 233.508 28.656 234.01 28.344C234.522 28.032 235.094 27.876 235.726 27.876C236.229 27.876 236.675 27.9713 237.065 28.162C237.464 28.344 237.802 28.5953 238.079 28.916C238.357 29.228 238.569 29.5833 238.716 29.982C238.864 30.372 238.937 30.775 238.937 31.191C238.937 31.2777 238.933 31.3773 238.924 31.49C238.916 31.594 238.903 31.7023 238.885 31.815H232.996V30.905H238.326L237.858 31.295C237.936 30.8183 237.88 30.3937 237.689 30.021C237.507 29.6397 237.243 29.3407 236.896 29.124C236.55 28.8987 236.16 28.786 235.726 28.786C235.293 28.786 234.89 28.8987 234.517 29.124C234.153 29.3493 233.867 29.6657 233.659 30.073C233.451 30.4717 233.369 30.9483 233.412 31.503C233.369 32.0577 233.456 32.543 233.672 32.959C233.898 33.3663 234.201 33.6827 234.582 33.908C234.972 34.1333 235.388 34.246 235.83 34.246C236.342 34.246 236.771 34.1247 237.117 33.882C237.464 33.6393 237.746 33.336 237.962 32.972L238.794 33.414C238.656 33.726 238.443 34.0163 238.157 34.285C237.871 34.545 237.529 34.7573 237.13 34.922C236.74 35.078 236.307 35.156 235.83 35.156ZM243.321 35.078C242.697 35.078 242.216 34.896 241.878 34.532C241.54 34.168 241.371 33.648 241.371 32.972V29.007H240.084V28.032H240.409C240.704 28.032 240.938 27.9367 241.111 27.746C241.285 27.5467 241.371 27.2997 241.371 27.005V26.42H242.346V28.032H243.88V29.007H242.346V32.972C242.346 33.206 242.381 33.414 242.45 33.596C242.52 33.7693 242.637 33.908 242.801 34.012C242.975 34.116 243.204 34.168 243.49 34.168C243.56 34.168 243.642 34.1637 243.737 34.155C243.833 34.1463 243.915 34.1377 243.984 34.129V35C243.88 35.026 243.763 35.0433 243.633 35.052C243.503 35.0693 243.399 35.078 243.321 35.078ZM250.375 35.156C249.89 35.156 249.448 35.0433 249.049 34.818C248.651 34.584 248.334 34.2633 248.1 33.856C247.875 33.44 247.762 32.9633 247.762 32.426V28.032H248.737V32.309C248.737 32.6817 248.811 33.011 248.958 33.297C249.114 33.5743 249.327 33.791 249.595 33.947C249.873 34.103 250.189 34.181 250.544 34.181C250.9 34.181 251.216 34.103 251.493 33.947C251.771 33.7823 251.987 33.5527 252.143 33.258C252.299 32.9547 252.377 32.595 252.377 32.179V28.032H253.352V35H252.377V33.648L252.598 33.7C252.434 34.1507 252.152 34.506 251.753 34.766C251.355 35.026 250.895 35.156 250.375 35.156ZM257.775 35.156C257.108 35.156 256.523 34.987 256.02 34.649C255.518 34.311 255.154 33.8517 254.928 33.271L255.747 32.881C255.947 33.3057 256.224 33.6437 256.579 33.895C256.943 34.1463 257.342 34.272 257.775 34.272C258.191 34.272 258.542 34.1723 258.828 33.973C259.114 33.765 259.257 33.4963 259.257 33.167C259.257 32.9243 259.188 32.7337 259.049 32.595C258.911 32.4477 258.75 32.335 258.568 32.257C258.386 32.179 258.226 32.1227 258.087 32.088L257.086 31.802C256.445 31.62 255.981 31.3643 255.695 31.035C255.409 30.7057 255.266 30.3243 255.266 29.891C255.266 29.4837 255.37 29.1283 255.578 28.825C255.786 28.5217 256.068 28.2877 256.423 28.123C256.779 27.9583 257.173 27.876 257.606 27.876C258.196 27.876 258.729 28.032 259.205 28.344C259.691 28.6473 260.033 29.072 260.232 29.618L259.4 30.008C259.227 29.618 258.976 29.3147 258.646 29.098C258.326 28.8727 257.966 28.76 257.567 28.76C257.177 28.76 256.865 28.8597 256.631 29.059C256.397 29.2583 256.28 29.5097 256.28 29.813C256.28 30.047 256.341 30.2333 256.462 30.372C256.584 30.5107 256.722 30.6147 256.878 30.684C257.043 30.7533 257.186 30.8053 257.307 30.84L258.464 31.178C259.028 31.3427 259.465 31.5983 259.777 31.945C260.098 32.2917 260.258 32.699 260.258 33.167C260.258 33.5483 260.15 33.8907 259.933 34.194C259.725 34.4973 259.435 34.7357 259.062 34.909C258.69 35.0737 258.261 35.156 257.775 35.156ZM265.144 35.156C264.494 35.156 263.904 35 263.376 34.688C262.856 34.3673 262.444 33.9297 262.141 33.375C261.837 32.8203 261.686 32.192 261.686 31.49C261.686 30.788 261.833 30.1683 262.128 29.631C262.422 29.085 262.821 28.656 263.324 28.344C263.835 28.032 264.407 27.876 265.04 27.876C265.542 27.876 265.989 27.9713 266.379 28.162C266.777 28.344 267.115 28.5953 267.393 28.916C267.67 29.228 267.882 29.5833 268.03 29.982C268.177 30.372 268.251 30.775 268.251 31.191C268.251 31.2777 268.246 31.3773 268.238 31.49C268.229 31.594 268.216 31.7023 268.199 31.815H262.31V30.905H267.64L267.172 31.295C267.25 30.8183 267.193 30.3937 267.003 30.021C266.821 29.6397 266.556 29.3407 266.21 29.124C265.863 28.8987 265.473 28.786 265.04 28.786C264.606 28.786 264.203 28.8987 263.831 29.124C263.467 29.3493 263.181 29.6657 262.973 30.073C262.765 30.4717 262.682 30.9483 262.726 31.503C262.682 32.0577 262.769 32.543 262.986 32.959C263.211 33.3663 263.514 33.6827 263.896 33.908C264.286 34.1333 264.702 34.246 265.144 34.246C265.655 34.246 266.084 34.1247 266.431 33.882C266.777 33.6393 267.059 33.336 267.276 32.972L268.108 33.414C267.969 33.726 267.757 34.0163 267.471 34.285C267.185 34.545 266.842 34.7573 266.444 34.922C266.054 35.078 265.62 35.156 265.144 35.156ZM269.97 35V28.032H270.945V29.176L270.815 29.007C270.979 28.6777 271.226 28.4177 271.556 28.227C271.894 28.0363 272.301 27.941 272.778 27.941H273.22V28.916H272.609C272.106 28.916 271.703 29.072 271.4 29.384C271.096 29.696 270.945 30.138 270.945 30.71V35H269.97ZM276.78 35.156C276.113 35.156 275.528 34.987 275.025 34.649C274.523 34.311 274.159 33.8517 273.933 33.271L274.752 32.881C274.952 33.3057 275.229 33.6437 275.584 33.895C275.948 34.1463 276.347 34.272 276.78 34.272C277.196 34.272 277.547 34.1723 277.833 33.973C278.119 33.765 278.262 33.4963 278.262 33.167C278.262 32.9243 278.193 32.7337 278.054 32.595C277.916 32.4477 277.755 32.335 277.573 32.257C277.391 32.179 277.231 32.1227 277.092 32.088L276.091 31.802C275.45 31.62 274.986 31.3643 274.7 31.035C274.414 30.7057 274.271 30.3243 274.271 29.891C274.271 29.4837 274.375 29.1283 274.583 28.825C274.791 28.5217 275.073 28.2877 275.428 28.123C275.784 27.9583 276.178 27.876 276.611 27.876C277.201 27.876 277.734 28.032 278.21 28.344C278.696 28.6473 279.038 29.072 279.237 29.618L278.405 30.008C278.232 29.618 277.981 29.3147 277.651 29.098C277.331 28.8727 276.971 28.76 276.572 28.76C276.182 28.76 275.87 28.8597 275.636 29.059C275.402 29.2583 275.285 29.5097 275.285 29.813C275.285 30.047 275.346 30.2333 275.467 30.372C275.589 30.5107 275.727 30.6147 275.883 30.684C276.048 30.7533 276.191 30.8053 276.312 30.84L277.469 31.178C278.033 31.3427 278.47 31.5983 278.782 31.945C279.103 32.2917 279.263 32.699 279.263 33.167C279.263 33.5483 279.155 33.8907 278.938 34.194C278.73 34.4973 278.44 34.7357 278.067 34.909C277.695 35.0737 277.266 35.156 276.78 35.156ZM208.535 53L206.143 46.032H207.248L209.224 52.129H208.834L210.693 46.032H211.668L213.527 52.129H213.137L215.126 46.032H216.218L213.826 53H212.851L211.044 47.033H211.317L209.51 53H208.535ZM220.496 53.156C219.838 53.156 219.24 53 218.702 52.688C218.165 52.3673 217.736 51.934 217.415 51.388C217.103 50.8333 216.947 50.205 216.947 49.503C216.947 48.8097 217.103 48.19 217.415 47.644C217.727 47.098 218.148 46.669 218.676 46.357C219.214 46.0363 219.82 45.876 220.496 45.876C221.172 45.876 221.775 46.032 222.303 46.344C222.841 46.656 223.261 47.085 223.564 47.631C223.876 48.177 224.032 48.801 224.032 49.503C224.032 50.2137 223.872 50.8463 223.551 51.401C223.231 51.947 222.802 52.376 222.264 52.688C221.736 53 221.146 53.156 220.496 53.156ZM220.496 52.181C220.964 52.181 221.385 52.064 221.757 51.83C222.139 51.596 222.438 51.2753 222.654 50.868C222.88 50.4607 222.992 50.0057 222.992 49.503C222.992 49.0003 222.88 48.5497 222.654 48.151C222.438 47.7523 222.139 47.436 221.757 47.202C221.385 46.968 220.964 46.851 220.496 46.851C220.028 46.851 219.604 46.968 219.222 47.202C218.85 47.436 218.551 47.7523 218.325 48.151C218.1 48.5497 217.987 49.0003 217.987 49.503C217.987 50.0057 218.1 50.4607 218.325 50.868C218.551 51.2753 218.85 51.596 219.222 51.83C219.604 52.064 220.028 52.181 220.496 52.181ZM225.752 53V46.032H226.727V47.176L226.597 47.007C226.762 46.6777 227.009 46.4177 227.338 46.227C227.676 46.0363 228.083 45.941 228.56 45.941H229.002V46.916H228.391C227.888 46.916 227.485 47.072 227.182 47.384C226.879 47.696 226.727 48.138 226.727 48.71V53H225.752ZM230.145 53V43.159H231.12V53H230.145ZM236.261 53.156C235.611 53.156 235.026 53 234.506 52.688C233.986 52.3673 233.575 51.934 233.271 51.388C232.977 50.8333 232.829 50.2093 232.829 49.516C232.829 48.814 232.977 48.19 233.271 47.644C233.575 47.098 233.982 46.669 234.493 46.357C235.013 46.0363 235.603 45.876 236.261 45.876C236.859 45.876 237.392 46.006 237.86 46.266C238.328 46.526 238.697 46.877 238.965 47.319L238.809 47.592V43.159H239.784V53H238.809V51.44L238.965 51.583C238.723 52.0857 238.359 52.4757 237.873 52.753C237.397 53.0217 236.859 53.156 236.261 53.156ZM236.313 52.181C236.781 52.181 237.202 52.064 237.574 51.83C237.956 51.596 238.255 51.2797 238.471 50.881C238.697 50.4737 238.809 50.0187 238.809 49.516C238.809 49.0133 238.697 48.5627 238.471 48.164C238.255 47.7567 237.956 47.436 237.574 47.202C237.202 46.968 236.781 46.851 236.313 46.851C235.854 46.851 235.438 46.968 235.065 47.202C234.693 47.436 234.398 47.7523 234.181 48.151C233.973 48.5497 233.869 49.0047 233.869 49.516C233.869 50.0187 233.973 50.4737 234.181 50.881C234.398 51.2797 234.688 51.596 235.052 51.83C235.425 52.064 235.845 52.181 236.313 52.181ZM243.32 53L240.928 46.032H242.033L244.009 52.129H243.619L245.478 46.032H246.453L248.312 52.129H247.922L249.911 46.032H251.003L248.611 53H247.636L245.829 47.033H246.102L244.295 53H243.32ZM252.146 53V46.032H253.121V53H252.146ZM252.146 44.745V43.315H253.121V44.745H252.146ZM258.262 53.156C257.612 53.156 257.027 53 256.507 52.688C255.987 52.3673 255.576 51.934 255.272 51.388C254.978 50.8333 254.83 50.2093 254.83 49.516C254.83 48.814 254.978 48.19 255.272 47.644C255.576 47.098 255.983 46.669 256.494 46.357C257.014 46.0363 257.604 45.876 258.262 45.876C258.86 45.876 259.393 46.006 259.861 46.266C260.329 46.526 260.698 46.877 260.966 47.319L260.81 47.592V43.159H261.785V53H260.81V51.44L260.966 51.583C260.724 52.0857 260.36 52.4757 259.874 52.753C259.398 53.0217 258.86 53.156 258.262 53.156ZM258.314 52.181C258.782 52.181 259.203 52.064 259.575 51.83C259.957 51.596 260.256 51.2797 260.472 50.881C260.698 50.4737 260.81 50.0187 260.81 49.516C260.81 49.0133 260.698 48.5627 260.472 48.164C260.256 47.7567 259.957 47.436 259.575 47.202C259.203 46.968 258.782 46.851 258.314 46.851C257.855 46.851 257.439 46.968 257.066 47.202C256.694 47.436 256.399 47.7523 256.182 48.151C255.974 48.5497 255.87 49.0047 255.87 49.516C255.87 50.0187 255.974 50.4737 256.182 50.881C256.399 51.2797 256.689 51.596 257.053 51.83C257.426 52.064 257.846 52.181 258.314 52.181ZM266.959 53.156C266.309 53.156 265.72 53 265.191 52.688C264.671 52.3673 264.259 51.9297 263.956 51.375C263.653 50.8203 263.501 50.192 263.501 49.49C263.501 48.788 263.648 48.1683 263.943 47.631C264.238 47.085 264.636 46.656 265.139 46.344C265.65 46.032 266.222 45.876 266.855 45.876C267.358 45.876 267.804 45.9713 268.194 46.162C268.593 46.344 268.931 46.5953 269.208 46.916C269.485 47.228 269.698 47.5833 269.845 47.982C269.992 48.372 270.066 48.775 270.066 49.191C270.066 49.2777 270.062 49.3773 270.053 49.49C270.044 49.594 270.031 49.7023 270.014 49.815H264.125V48.905H269.455L268.987 49.295C269.065 48.8183 269.009 48.3937 268.818 48.021C268.636 47.6397 268.372 47.3407 268.025 47.124C267.678 46.8987 267.288 46.786 266.855 46.786C266.422 46.786 266.019 46.8987 265.646 47.124C265.282 47.3493 264.996 47.6657 264.788 48.073C264.58 48.4717 264.498 48.9483 264.541 49.503C264.498 50.0577 264.584 50.543 264.801 50.959C265.026 51.3663 265.33 51.6827 265.711 51.908C266.101 52.1333 266.517 52.246 266.959 52.246C267.47 52.246 267.899 52.1247 268.246 51.882C268.593 51.6393 268.874 51.336 269.091 50.972L269.923 51.414C269.784 51.726 269.572 52.0163 269.286 52.285C269 52.545 268.658 52.7573 268.259 52.922C267.869 53.078 267.436 53.156 266.959 53.156Z" fill="white"/>
<path d="M41.8494 31.1977C41.8494 16.1893 63.9999 16.1893 63.9999 31.1977C63.9999 46.2061 41.8494 46.237 41.8494 31.1977ZM58.3543 31.1977C58.3543 23.3834 47.5258 23.3834 47.5258 31.1977C47.5258 39.012 58.3543 39.0739 58.3543 31.1977Z" fill="url(#paint0_linear_4165_477)"/>
<path d="M60.6811 44.6977C61.0801 51.0724 56.5257 54.2956 50.2592 54.2956C44.6715 54.2956 37.4205 51.9592 29.8406 47.715C26.9925 46.1208 24.2766 44.3549 21.731 42.4771H21.7349C10.2823 34.0333 3.89534 24.7188 1.89523 18.7042C0.517629 14.5532 0.754136 11.0408 2.58131 8.55056C5.47234 4.60981 11.4562 4.40808 16.2529 5.37249C-2.54242 1.4638 -5.58295 16.2674 10.0003 33.1568V42.4773H20.3614C40.3523 57.6721 62.1962 59.3761 60.6813 44.6979L60.6811 44.6977Z" fill="url(#paint1_linear_4165_477)"/>
<path d="M23.8892 20.0715H10.5361C11.2407 21.5997 12.1986 23.2376 13.4033 24.9446C14.1182 25.9579 14.8751 26.9352 15.6575 27.8758V25.1928H23.889V20.0715H23.8892Z" fill="url(#paint2_linear_4165_477)"/>
<path d="M20.9879 33.4508H23.2215V28.3616H16.0664C17.6506 30.2182 19.33 31.9224 20.9879 33.4508Z" fill="url(#paint3_linear_4165_477)"/>
<path d="M44.1942 20.0718H38.3146L34.755 25.8971H34.5962L31.0683 20.0718H25.1567V20.9359L31.5767 30.6022L26.6693 38.1252C26.9685 38.3498 27.2616 38.5666 27.5457 38.7734C28.7612 39.6573 29.9904 40.4915 31.2224 41.2756L34.5962 35.4354H34.7869L38.855 42.4773H44.989V41.6132L37.7745 30.6025L44.1945 20.9361V20.072L44.1942 20.0718Z" fill="url(#paint4_linear_4165_477)"/>
<path d="M58.1149 49.8687C51.5904 58.7631 25.2424 47.8136 10.3084 30.1949C3.26875 21.894 0.33845 13.7443 3.59509 9.30408C8.33434 2.84478 24.3804 6.68717 39.4367 17.8896C39.8833 18.2209 40.3231 18.5565 40.7584 18.895C27.2393 8.91478 13.0328 5.33062 8.95012 10.8959C6.60089 14.098 8.10998 19.6352 12.376 25.6799C16.1532 31.0326 21.4561 35.9463 26.7854 39.8279C43.4339 51.9347 59.8035 53.6959 59.2445 43.2993C59.7052 45.9036 59.3678 48.1611 58.1147 49.8685L58.1149 49.8687Z" fill="url(#paint5_linear_4165_477)"/>
<path d="M80.54 27V12.1H90.36V14.2H82.9V18.48H89.96V20.58H82.9V24.9H90.36V27H80.54ZM91.2317 27L96.0917 19.46L91.3117 12.1H93.9917L97.9917 18.26H96.8517L100.812 12.1H103.492L98.7317 19.46L103.592 27H100.912L96.8517 20.68L97.9917 20.7L93.8917 27H91.2317ZM111.979 27.24C110.899 27.24 109.893 27.0467 108.959 26.66C108.039 26.2733 107.226 25.7333 106.519 25.04C105.826 24.3467 105.279 23.5333 104.879 22.6C104.493 21.6667 104.299 20.6467 104.299 19.54C104.299 18.4333 104.493 17.4133 104.879 16.48C105.279 15.5333 105.826 14.72 106.519 14.04C107.213 13.3467 108.026 12.8133 108.959 12.44C109.893 12.0533 110.899 11.86 111.979 11.86C113.073 11.86 114.079 12.0533 114.999 12.44C115.933 12.8133 116.746 13.3467 117.439 14.04C118.146 14.7333 118.693 15.5467 119.079 16.48C119.466 17.4133 119.659 18.4333 119.659 19.54C119.659 20.6467 119.459 21.6667 119.059 22.6C118.673 23.5333 118.133 24.3467 117.439 25.04C116.746 25.7333 115.933 26.2733 114.999 26.66C114.066 27.0467 113.059 27.24 111.979 27.24ZM111.979 25.08C112.753 25.08 113.459 24.94 114.099 24.66C114.753 24.38 115.319 23.9933 115.799 23.5C116.279 22.9933 116.653 22.4067 116.919 21.74C117.186 21.06 117.319 20.3267 117.319 19.54C117.319 18.7533 117.186 18.0267 116.919 17.36C116.653 16.6933 116.279 16.1067 115.799 15.6C115.319 15.0933 114.753 14.7 114.099 14.42C113.459 14.14 112.753 14 111.979 14C111.206 14 110.493 14.14 109.839 14.42C109.199 14.7 108.639 15.0933 108.159 15.6C107.679 16.1067 107.306 16.6933 107.039 17.36C106.786 18.0267 106.659 18.7533 106.659 19.54C106.659 20.3267 106.786 21.06 107.039 21.74C107.306 22.4067 107.679 22.9933 108.159 23.5C108.639 23.9933 109.206 24.38 109.859 24.66C110.513 24.94 111.219 25.08 111.979 25.08ZM87.48 51.24C86.4267 51.24 85.4467 51.0467 84.54 50.66C83.6467 50.2733 82.8667 49.74 82.2 49.06C81.5467 48.3667 81.0333 47.5533 80.66 46.62C80.2867 45.6867 80.1 44.66 80.1 43.54C80.1 42.4333 80.28 41.4133 80.64 40.48C81.0133 39.5333 81.5333 38.72 82.2 38.04C82.8667 37.3467 83.6467 36.8133 84.54 36.44C85.4333 36.0533 86.4133 35.86 87.48 35.86C88.5333 35.86 89.4733 36.04 90.3 36.4C91.14 36.76 91.8467 37.2333 92.42 37.82C92.9933 38.3933 93.4067 39.02 93.66 39.7L91.54 40.7C91.22 39.9 90.7067 39.2533 90 38.76C89.3067 38.2533 88.4667 38 87.48 38C86.4933 38 85.62 38.2333 84.86 38.7C84.1 39.1667 83.5067 39.8133 83.08 40.64C82.6667 41.4667 82.46 42.4333 82.46 43.54C82.46 44.6467 82.6667 45.62 83.08 46.46C83.5067 47.2867 84.1 47.9333 84.86 48.4C85.62 48.8533 86.4933 49.08 87.48 49.08C88.4667 49.08 89.3067 48.8333 90 48.34C90.7067 47.8467 91.22 47.2 91.54 46.4L93.66 47.4C93.4067 48.0667 92.9933 48.6933 92.42 49.28C91.8467 49.8667 91.14 50.34 90.3 50.7C89.4733 51.06 88.5333 51.24 87.48 51.24ZM100.892 51.24C99.8516 51.24 98.8982 50.9933 98.0316 50.5C97.1782 50.0067 96.4982 49.3333 95.9916 48.48C95.4849 47.6267 95.2316 46.66 95.2316 45.58C95.2316 44.4867 95.4849 43.52 95.9916 42.68C96.4982 41.8267 97.1782 41.16 98.0316 40.68C98.8849 40.1867 99.8382 39.94 100.892 39.94C101.958 39.94 102.912 40.1867 103.752 40.68C104.605 41.16 105.278 41.8267 105.772 42.68C106.278 43.52 106.532 44.4867 106.532 45.58C106.532 46.6733 106.278 47.6467 105.772 48.5C105.265 49.3533 104.585 50.0267 103.732 50.52C102.878 51 101.932 51.24 100.892 51.24ZM100.892 49.14C101.532 49.14 102.098 48.9867 102.592 48.68C103.085 48.3733 103.472 47.9533 103.752 47.42C104.045 46.8733 104.192 46.26 104.192 45.58C104.192 44.9 104.045 44.2933 103.752 43.76C103.472 43.2267 103.085 42.8067 102.592 42.5C102.098 42.1933 101.532 42.04 100.892 42.04C100.265 42.04 99.6982 42.1933 99.1916 42.5C98.6982 42.8067 98.3049 43.2267 98.0116 43.76C97.7316 44.2933 97.5916 44.9 97.5916 45.58C97.5916 46.26 97.7316 46.8733 98.0116 47.42C98.3049 47.9533 98.6982 48.3733 99.1916 48.68C99.6982 48.9867 100.265 49.14 100.892 49.14ZM108.738 51V40.18H110.898V42.3L110.638 42.02C110.905 41.34 111.331 40.8267 111.918 40.48C112.505 40.12 113.185 39.94 113.958 39.94C114.758 39.94 115.465 40.1133 116.078 40.46C116.691 40.8067 117.171 41.2867 117.518 41.9C117.865 42.5133 118.038 43.22 118.038 44.02V51H115.798V44.62C115.798 44.0733 115.698 43.6133 115.498 43.24C115.298 42.8533 115.011 42.56 114.638 42.36C114.278 42.1467 113.865 42.04 113.398 42.04C112.931 42.04 112.511 42.1467 112.138 42.36C111.778 42.56 111.498 42.8533 111.298 43.24C111.098 43.6267 110.998 44.0867 110.998 44.62V51H108.738ZM120.457 51V40.18H122.617V42.3L122.357 42.02C122.623 41.34 123.05 40.8267 123.637 40.48C124.223 40.12 124.903 39.94 125.677 39.94C126.477 39.94 127.183 40.1133 127.797 40.46C128.41 40.8067 128.89 41.2867 129.237 41.9C129.583 42.5133 129.757 43.22 129.757 44.02V51H127.517V44.62C127.517 44.0733 127.417 43.6133 127.217 43.24C127.017 42.8533 126.73 42.56 126.357 42.36C125.997 42.1467 125.583 42.04 125.117 42.04C124.65 42.04 124.23 42.1467 123.857 42.36C123.497 42.56 123.217 42.8533 123.017 43.24C122.817 43.6267 122.717 44.0867 122.717 44.62V51H120.457ZM137.255 51.24C136.175 51.24 135.215 50.9933 134.375 50.5C133.549 49.9933 132.902 49.3133 132.435 48.46C131.969 47.5933 131.735 46.6267 131.735 45.56C131.735 44.4667 131.969 43.5 132.435 42.66C132.915 41.82 133.555 41.16 134.355 40.68C135.155 40.1867 136.062 39.94 137.075 39.94C137.889 39.94 138.615 40.08 139.255 40.36C139.895 40.64 140.435 41.0267 140.875 41.52C141.315 42 141.649 42.5533 141.875 43.18C142.115 43.8067 142.235 44.4733 142.235 45.18C142.235 45.3533 142.229 45.5333 142.215 45.72C142.202 45.9067 142.175 46.08 142.135 46.24H133.515V44.44H140.855L139.775 45.26C139.909 44.6067 139.862 44.0267 139.635 43.52C139.422 43 139.089 42.5933 138.635 42.3C138.195 41.9933 137.675 41.84 137.075 41.84C136.475 41.84 135.942 41.9933 135.475 42.3C135.009 42.5933 134.649 43.02 134.395 43.58C134.142 44.1267 134.042 44.7933 134.095 45.58C134.029 46.3133 134.129 46.9533 134.395 47.5C134.675 48.0467 135.062 48.4733 135.555 48.78C136.062 49.0867 136.635 49.24 137.275 49.24C137.929 49.24 138.482 49.0933 138.935 48.8C139.402 48.5067 139.769 48.1267 140.035 47.66L141.875 48.56C141.662 49.0667 141.329 49.5267 140.875 49.94C140.435 50.34 139.902 50.66 139.275 50.9C138.662 51.1267 137.989 51.24 137.255 51.24ZM149.581 51.24C148.501 51.24 147.541 50.9933 146.701 50.5C145.874 49.9933 145.214 49.3133 144.721 48.46C144.241 47.6067 144.001 46.64 144.001 45.56C144.001 44.4933 144.241 43.5333 144.721 42.68C145.201 41.8267 145.861 41.16 146.701 40.68C147.541 40.1867 148.501 39.94 149.581 39.94C150.314 39.94 151.001 40.0733 151.641 40.34C152.281 40.5933 152.834 40.9467 153.301 41.4C153.781 41.8533 154.134 42.38 154.361 42.98L152.381 43.9C152.154 43.34 151.788 42.8933 151.281 42.56C150.788 42.2133 150.221 42.04 149.581 42.04C148.968 42.04 148.414 42.1933 147.921 42.5C147.441 42.7933 147.061 43.2133 146.781 43.76C146.501 44.2933 146.361 44.9 146.361 45.58C146.361 46.26 146.501 46.8733 146.781 47.42C147.061 47.9533 147.441 48.3733 147.921 48.68C148.414 48.9867 148.968 49.14 149.581 49.14C150.234 49.14 150.801 48.9733 151.281 48.64C151.774 48.2933 152.141 47.8333 152.381 47.26L154.361 48.2C154.148 48.7733 153.801 49.2933 153.321 49.76C152.854 50.2133 152.301 50.5733 151.661 50.84C151.021 51.1067 150.328 51.24 149.581 51.24ZM161.25 51.12C160.117 51.12 159.237 50.8 158.61 50.16C157.983 49.52 157.67 48.62 157.67 47.46V42.22H155.77V40.18H156.07C156.577 40.18 156.97 40.0333 157.25 39.74C157.53 39.4467 157.67 39.0467 157.67 38.54V37.7H159.93V40.18H162.39V42.22H159.93V47.36C159.93 47.7333 159.99 48.0533 160.11 48.32C160.23 48.5733 160.423 48.7733 160.69 48.92C160.957 49.0533 161.303 49.12 161.73 49.12C161.837 49.12 161.957 49.1133 162.09 49.1C162.223 49.0867 162.35 49.0733 162.47 49.06V51C162.283 51.0267 162.077 51.0533 161.85 51.08C161.623 51.1067 161.423 51.12 161.25 51.12Z" fill="#9D6EF8"/>
<g opacity="0.5">
<mask id="mask0_4165_477" style="mask-type:luminance" maskUnits="userSpaceOnUse" x="300" y="15" width="152" height="30">
<path d="M300 15H452V44.693H300V15Z" fill="white"/>
</mask>
<g mask="url(#mask0_4165_477)">
<path d="M357.358 25.7839V23.1841H341.631V36.5661H357.357V33.9662H344.841V31.0445H355.476V28.4439H344.841V25.7839H357.358ZM366.324 29.7948L359.133 36.5661H363.411L368.687 31.6489L373.311 36.5661H377.773L370.581 29.7948L377.549 23.1841H373.414L368.688 27.9607L363.757 23.1841H359.336L366.324 29.7948Z" fill="white"/>
<path fill-rule="evenodd" clip-rule="evenodd" d="M386.285 23.1841C392.113 23.1841 395.618 25.9772 395.618 29.8751C395.618 33.7729 392.113 36.5661 386.285 36.5661C380.457 36.5661 376.972 33.7729 376.972 29.8751C376.972 25.9772 380.457 23.1841 386.285 23.1841ZM386.285 25.6858C382.781 25.6858 380.196 27.3734 380.196 29.8751C380.196 32.3768 382.781 34.0644 386.285 34.0644C389.809 34.0644 392.393 32.3768 392.393 29.8751C392.393 27.3734 389.809 25.6858 386.285 25.6858ZM414.715 29.855C414.715 25.6627 411.902 23.1841 407.234 23.1841H397.817V36.5661H407.275C411.922 36.5661 414.715 34.0874 414.715 29.855ZM406.827 25.7839C409.782 25.7839 411.412 27.2351 411.412 29.855C411.412 32.495 409.782 33.9662 406.827 33.9662H401.018V25.7839H406.827Z" fill="white"/>
<path d="M425.29 36.5661C420.382 36.5661 416.659 34.4309 416.659 30.4973V23.1841H419.871V30.2014C419.871 32.6325 422.508 33.7588 425.29 33.7588C428.092 33.7588 430.73 32.6526 430.73 30.2014V23.1841H433.921V30.4973C433.921 34.4309 430.219 36.5661 425.29 36.5661ZM435.41 35.2279C437.429 36.1007 440.272 36.5661 442.909 36.5661C447.647 36.5661 451.314 35.0725 451.314 32.3961C451.314 30.2825 449.584 29.1963 446.246 28.7502L441.878 28.2848C440.025 28.0321 439.303 27.7221 439.303 27.102C439.303 26.2099 440.745 25.7244 442.929 25.7244C445.051 25.7244 448.059 26.0738 449.83 26.7727L450.881 24.4056C449.089 23.6301 445.607 23.1841 443.074 23.1841C438.871 23.1841 436.008 24.7156 436.008 27.3154C436.008 29.3324 437.697 30.4765 441.158 30.9226L445.649 31.388C447.235 31.6207 447.997 31.9114 447.997 32.5901C447.997 33.5209 445.586 34.045 443.011 34.045C440.766 34.045 438.274 33.5402 436.461 32.7455L435.41 35.2279Z" fill="white"/>
<path d="M313.536 31.6117H306.097L305.1 34.6036L313.564 39.8253V44.4182L300.344 36.2304L302.5 29.7216L300.344 23.215L313.536 15V19.5922L305.1 24.8147L306.068 27.8065H313.536V31.6117Z" fill="white"/>
<path d="M317.575 15L330.767 23.2143L328.61 29.7223L330.767 36.2311L317.575 44.4182V39.826L326.038 34.6036L325.043 31.6117H317.575V27.8065H325.043L326.038 24.8147L317.575 19.5929L317.575 15Z" fill="white"/>
</g>
</g>
<rect opacity="0.3" x="185" width="1" height="59" fill="#D9D9D9"/>
<defs>
<linearGradient id="paint0_linear_4165_477" x1="36.5072" y1="27.0961" x2="68.8103" y2="38.414" gradientUnits="userSpaceOnUse">
<stop stop-color="#6036F6"/>
<stop offset="1" stop-color="#B080F9"/>
</linearGradient>
<linearGradient id="paint1_linear_4165_477" x1="-14.6529" y1="20.6534" x2="69.1773" y2="56.8735" gradientUnits="userSpaceOnUse">
<stop stop-color="#6036F6"/>
<stop offset="1" stop-color="#B080F9"/>
</linearGradient>
<linearGradient id="paint2_linear_4165_477" x1="7.31568" y1="22.5505" x2="23.2562" y2="32.2676" gradientUnits="userSpaceOnUse">
<stop stop-color="#6036F6"/>
<stop offset="1" stop-color="#B080F9"/>
</linearGradient>
<linearGradient id="paint3_linear_4165_477" x1="14.3408" y1="29.9782" x2="23.7064" y2="34.6694" gradientUnits="userSpaceOnUse">
<stop stop-color="#6036F6"/>
<stop offset="1" stop-color="#B080F9"/>
</linearGradient>
<linearGradient id="paint4_linear_4165_477" x1="20.3737" y1="27.1888" x2="49.9091" y2="36.5031" gradientUnits="userSpaceOnUse">
<stop stop-color="#6036F6"/>
<stop offset="1" stop-color="#B080F9"/>
</linearGradient>
<linearGradient id="paint5_linear_4165_477" x1="-11.5198" y1="21.0533" x2="67.2141" y2="55.2793" gradientUnits="userSpaceOnUse">
<stop stop-color="#6036F6"/>
<stop offset="1" stop-color="#B080F9"/>
</linearGradient>
</defs>
</svg>
