<svg width="17" height="9" viewBox="0 0 17 9" fill="none" xmlns="http://www.w3.org/2000/svg">
<path d="M9.16334 8.75564L16.7284 1.93832C16.9035 1.78065 17 1.57016 17 1.34573C17 1.12129 16.9035 0.910811 16.7284 0.753134L16.1714 0.251086C15.8085 -0.0755998 15.2186 -0.0755999 14.8562 0.251086L8.50352 5.97575L2.14378 0.244734C1.96867 0.0870576 1.73523 -6.67244e-07 1.48631 -6.78125e-07C1.23712 -6.89017e-07 1.00368 0.0870575 0.828432 0.244734L0.271584 0.746782C0.0964717 0.904583 -4.87357e-08 1.11494 -5.8546e-08 1.33938C-6.83563e-08 1.56381 0.0964717 1.77429 0.271583 1.93197L7.84357 8.75564C8.01924 8.91369 8.25378 9.0005 8.50311 9C8.75341 9.0005 8.98781 8.91369 9.16334 8.75564Z" fill="url(#paint0_linear_4173_1161)"/>
<defs>
<linearGradient id="paint0_linear_4173_1161" x1="17" y1="0" x2="15.7444" y2="7.23314" gradientUnits="userSpaceOnUse">
<stop stop-color="#784FED"/>
<stop offset="1" stop-color="#6B52F5"/>
</linearGradient>
</defs>
</svg>
