<svg width="17" height="9" viewBox="0 0 17 9" fill="none" xmlns="http://www.w3.org/2000/svg">
<path d="M7.83666 0.244364L0.271583 7.06168C0.0964708 7.21936 1.8724e-08 7.42984 1.60476e-08 7.65427C1.33713e-08 7.87871 0.0964708 8.08919 0.271583 8.24687L0.82857 8.74892C1.19151 9.0756 1.78139 9.0756 2.14378 8.74892L8.49648 3.02425L14.8562 8.75527C15.0313 8.91294 15.2648 9 15.5137 9C15.7629 9 15.9963 8.91294 16.1716 8.75527L16.7284 8.25322C16.9035 8.09542 17 7.88506 17 7.66063C17 7.43619 16.9035 7.22571 16.7284 7.06803L9.15643 0.244364C8.98076 0.0863134 8.74622 -0.000494853 8.49689 2.96235e-06C8.24659 -0.000494859 8.01219 0.0863133 7.83666 0.244364Z" fill="url(#paint0_linear_4173_1147)"/>
<defs>
<linearGradient id="paint0_linear_4173_1147" x1="0" y1="9" x2="1.25563" y2="1.76686" gradientUnits="userSpaceOnUse">
<stop stop-color="#784FED"/>
<stop offset="1" stop-color="#6B52F5"/>
</linearGradient>
</defs>
</svg>
