<svg width="31" height="25" viewBox="0 0 31 25" fill="none" xmlns="http://www.w3.org/2000/svg">
<path opacity="0.3" d="M30.9985 12.7182C30.921 11.0338 29.3709 9.70038 27.4721 9.73547C26.6195 9.77056 25.8444 10.0864 25.2632 10.5776C22.628 8.92838 19.489 8.0511 16.2726 7.98092L17.7839 1.41893L22.783 2.33129C22.938 3.48929 24.0618 4.33147 25.3407 4.19111C26.6195 4.05074 27.5496 3.03311 27.3945 1.87511C27.2395 0.717109 26.1157 -0.125072 24.8369 0.0152912C24.1006 0.085473 23.4418 0.471473 23.093 1.03293L17.3964 0.0152912C17.0089 -0.0548906 16.6213 0.155655 16.5438 0.506564L14.8387 7.84056C11.5835 7.87565 8.44454 8.78801 5.73185 10.4373C4.37551 9.27928 2.20537 9.31437 0.926534 10.5776C-0.352301 11.8058 -0.313548 13.7709 1.08154 14.9289C1.35281 15.1395 1.66283 15.35 2.01161 15.4904C1.97285 15.8062 1.97285 16.122 2.01161 16.4027C2.01161 21.14 8.09576 25 15.6138 25C23.1318 25 29.2159 21.1751 29.2159 16.4027C29.2547 16.0869 29.2547 15.7711 29.2159 15.4904C30.301 14.9991 31.0373 13.9113 30.9985 12.7182ZM7.63073 14.8587C7.63073 13.7007 8.67705 12.7533 9.95589 12.7533C11.2347 12.7533 12.281 13.7007 12.281 14.8587C12.281 16.0167 11.2347 16.9642 9.95589 16.9642C8.67705 16.9642 7.63073 16.0167 7.63073 14.8587ZM21.1941 20.6838C19.5278 21.8067 17.5126 22.4033 15.4588 22.298C13.4049 22.3682 11.351 21.8067 9.72337 20.6838C9.49086 20.4382 9.52961 20.0873 9.80088 19.8767C10.0334 19.7013 10.3434 19.7013 10.6147 19.8767C12.0098 20.7891 13.7149 21.2804 15.4588 21.2102C17.2026 21.2804 18.9077 20.8593 20.3416 19.9118C20.6128 19.7013 21.0004 19.7013 21.2716 19.9118C21.5042 20.1575 21.5042 20.5084 21.2716 20.754V20.6838H21.1941ZM20.8066 17.0695C19.5278 17.0695 18.4815 16.122 18.4815 14.964C18.4815 13.806 19.5278 12.8586 20.8066 12.8586C22.0854 12.8586 23.1318 13.806 23.1318 14.964C23.1705 16.122 22.2017 17.1046 20.8841 17.1396C20.8454 17.1396 20.8066 17.1396 20.7679 17.1396L20.8066 17.0695Z" fill="white"/>
</svg>
