<svg width="21" height="13" viewBox="0 0 21 13" fill="none" xmlns="http://www.w3.org/2000/svg">
<path d="M9.68058 0.352967L0.335485 10.2002C0.11917 10.428 2.97414e-07 10.732 2.54902e-07 11.0562C2.12391e-07 11.3804 0.11917 11.6844 0.335485 11.9121L1.02353 12.6373C1.47187 13.1092 2.20054 13.1092 2.6482 12.6373L10.4956 4.36836L18.3518 12.6465C18.5681 12.8743 18.8565 13 19.164 13C19.4718 13 19.7602 12.8743 19.9766 12.6465L20.6645 11.9213C20.8808 11.6934 21 11.3895 21 11.0653C21 10.7412 20.8808 10.4371 20.6645 10.2094L11.3109 0.352967C11.0939 0.124672 10.8042 -0.000718607 10.4962 1.3764e-06C10.187 -0.000718688 9.89741 0.124672 9.68058 0.352967Z" fill="white"/>
</svg>
