<svg width="31" height="26" viewBox="0 0 31 26" fill="none" xmlns="http://www.w3.org/2000/svg">
<path d="M26.525 14.0369H24.1276C24.372 14.6984 24.5055 15.4123 24.5055 16.1563V25.115C24.5055 25.4252 24.4509 25.7229 24.3515 25.9999H28.315C29.7955 25.9999 31 24.8089 31 23.3452V18.4614C31.0001 16.0218 28.9926 14.0369 26.525 14.0369Z" fill="url(#paint0_linear_4151_36)"/>
<path d="M6.49457 16.1564C6.49457 15.4123 6.62808 14.6985 6.87245 14.037H4.47503C2.0075 14.037 0 16.0218 0 18.4615V23.3453C0 24.8091 1.20446 26 2.68502 26H6.64854C6.54919 25.7229 6.49457 25.4252 6.49457 25.115V16.1564Z" fill="url(#paint1_linear_4151_36)"/>
<path d="M18.2404 11.7318H12.7596C10.2921 11.7318 8.28458 13.7167 8.28458 16.1564V25.115C8.28458 25.6037 8.68529 25.9999 9.17959 25.9999H21.8205C22.3148 25.9999 22.7155 25.6038 22.7155 25.115V16.1564C22.7155 13.7167 20.708 11.7318 18.2404 11.7318Z" fill="url(#paint2_linear_4151_36)"/>
<path d="M15.5 0C12.5325 0 10.1183 2.38702 10.1183 5.32113C10.1183 7.31131 11.2292 9.04946 12.8699 9.96202C13.6481 10.3948 14.5453 10.6422 15.5 10.6422C16.4547 10.6422 17.3519 10.3948 18.1301 9.96202C19.7709 9.04946 20.8818 7.31125 20.8818 5.32113C20.8818 2.38708 18.4676 0 15.5 0Z" fill="url(#paint3_linear_4151_36)"/>
<path d="M6.04974 4.95967C3.83038 4.95967 2.02487 6.74481 2.02487 8.93913C2.02487 11.1334 3.83038 12.9186 6.04974 12.9186C6.6127 12.9186 7.14878 12.8033 7.63576 12.596C8.47773 12.2376 9.17196 11.6032 9.60154 10.8085C9.90307 10.2507 10.0746 9.61445 10.0746 8.93913C10.0746 6.74487 8.26908 4.95967 6.04974 4.95967Z" fill="url(#paint4_linear_4151_36)"/>
<path d="M24.9503 4.95967C22.731 4.95967 20.9255 6.74481 20.9255 8.93913C20.9255 9.61451 21.097 10.2508 21.3985 10.8085C21.8281 11.6033 22.5223 12.2377 23.3643 12.596C23.8513 12.8033 24.3874 12.9186 24.9503 12.9186C27.1697 12.9186 28.9752 11.1334 28.9752 8.93913C28.9752 6.74481 27.1697 4.95967 24.9503 4.95967Z" fill="url(#paint5_linear_4151_36)"/>
<defs>
<linearGradient id="paint0_linear_4151_36" x1="0" y1="0" x2="22.2622" y2="8.7036" gradientUnits="userSpaceOnUse">
<stop stop-color="#784FED"/>
<stop offset="1" stop-color="#6B52F5"/>
</linearGradient>
<linearGradient id="paint1_linear_4151_36" x1="0" y1="0" x2="22.2622" y2="8.7036" gradientUnits="userSpaceOnUse">
<stop stop-color="#784FED"/>
<stop offset="1" stop-color="#6B52F5"/>
</linearGradient>
<linearGradient id="paint2_linear_4151_36" x1="0" y1="0" x2="22.2622" y2="8.7036" gradientUnits="userSpaceOnUse">
<stop stop-color="#784FED"/>
<stop offset="1" stop-color="#6B52F5"/>
</linearGradient>
<linearGradient id="paint3_linear_4151_36" x1="0" y1="0" x2="22.2622" y2="8.7036" gradientUnits="userSpaceOnUse">
<stop stop-color="#784FED"/>
<stop offset="1" stop-color="#6B52F5"/>
</linearGradient>
<linearGradient id="paint4_linear_4151_36" x1="0" y1="0" x2="22.2622" y2="8.7036" gradientUnits="userSpaceOnUse">
<stop stop-color="#784FED"/>
<stop offset="1" stop-color="#6B52F5"/>
</linearGradient>
<linearGradient id="paint5_linear_4151_36" x1="0" y1="0" x2="22.2622" y2="8.7036" gradientUnits="userSpaceOnUse">
<stop stop-color="#784FED"/>
<stop offset="1" stop-color="#6B52F5"/>
</linearGradient>
</defs>
</svg>
