<svg width="25" height="34" viewBox="0 0 25 34" fill="none" xmlns="http://www.w3.org/2000/svg">
<path fill-rule="evenodd" clip-rule="evenodd" d="M23.5632 3.78526C24.3546 3.78526 25 4.4506 25 5.26639V32.5189C25 33.3346 24.3546 34 23.5632 34H1.4368C0.645425 34 0 33.3347 0 32.5189V5.26639C0 4.45067 0.645425 3.78526 1.4368 3.78526H4.48417V5.40345C4.48417 6.65918 5.47447 7.67996 6.69262 7.67996H18.3075C19.5256 7.67996 20.516 6.65911 20.516 5.40345V3.78526H23.5632ZM12.8697 21.1774H19.657C20.0875 21.1774 20.4365 20.8176 20.4365 20.3739C20.4365 19.9301 20.0875 19.5703 19.657 19.5703H12.8697C12.4393 19.5703 12.0903 19.9301 12.0903 20.3739C12.0903 20.8176 12.4393 21.1774 12.8697 21.1774ZM12.8697 28.2201H19.657C20.0875 28.2201 20.4365 27.8604 20.4365 27.4166C20.4365 26.9728 20.0875 26.6131 19.657 26.6131H12.8697C12.4393 26.6131 12.0903 26.9728 12.0903 27.4166C12.0903 27.8605 12.4393 28.2201 12.8697 28.2201ZM12.8697 14.1346H19.657C20.0875 14.1346 20.4365 13.7748 20.4365 13.331C20.4365 12.8873 20.0875 12.5275 19.657 12.5275H12.8697C12.4393 12.5275 12.0903 12.8873 12.0903 13.331C12.0903 13.7749 12.4393 14.1346 12.8697 14.1346ZM4.43731 14.0237L5.62 15.2428C5.92433 15.5565 6.41783 15.5565 6.72216 15.2428L6.72642 15.2382L9.56724 12.5806C9.88504 12.2825 9.9082 11.7752 9.61898 11.4476C9.32977 11.12 8.83764 11.0961 8.51985 11.3942L6.19802 13.5664L5.53947 12.8875C5.23514 12.5738 4.74164 12.5738 4.43724 12.8875C4.13297 13.2012 4.13297 13.7099 4.43731 14.0237ZM4.43731 28.1092L5.62 29.3283C5.92433 29.642 6.41783 29.642 6.72216 29.3283L6.72642 29.3238L9.56724 26.6662C9.88504 26.3681 9.9082 25.8608 9.61898 25.5331C9.32977 25.2055 8.83764 25.1817 8.51985 25.4798L6.19802 27.6519L5.53947 26.973C5.23514 26.6593 4.74164 26.6593 4.43724 26.973C4.13297 27.2868 4.13297 27.7955 4.43731 28.1092ZM4.43731 21.0665L5.62 22.2856C5.92433 22.5993 6.41783 22.5993 6.72216 22.2856L6.72642 22.281L9.56724 19.6235C9.88504 19.3253 9.9082 18.818 9.61898 18.4904C9.32977 18.1628 8.83764 18.1389 8.51985 18.437L6.19802 20.6091L5.53947 19.9302C5.23514 19.6165 4.74164 19.6165 4.43724 19.9302C4.13297 20.244 4.13297 20.7527 4.43731 21.0665ZM6.69255 2.24754C6.33483 2.24754 6.043 2.5483 6.043 2.91713V5.40345C6.043 5.77221 6.33483 6.07297 6.69255 6.07297H18.3075C18.6652 6.07297 18.957 5.77214 18.957 5.40345V2.91706C18.957 2.5483 18.6652 2.24747 18.3075 2.24747H15.2716C14.9698 0.958021 13.8436 0 12.5 0C11.1564 0 10.0302 0.958021 9.72844 2.24754H6.69255Z" fill="url(#paint0_linear_4171_996)"/>
<defs>
<linearGradient id="paint0_linear_4171_996" x1="0" y1="0" x2="19.5605" y2="4.7161" gradientUnits="userSpaceOnUse">
<stop stop-color="#784FED"/>
<stop offset="1" stop-color="#6B52F5"/>
</linearGradient>
</defs>
</svg>
