<svg width="27" height="27" viewBox="0 0 27 27" fill="none" xmlns="http://www.w3.org/2000/svg">
<path d="M11.0454 7.9441C11.0454 9.96168 15.0586 11.0176 19.0227 11.0176C22.9868 11.0176 27 9.96168 27 7.9441C26.9999 3.90889 11.0454 3.90889 11.0454 7.9441Z" fill="url(#paint0_linear_4136_710)"/>
<path d="M26.704 10.921C26.5212 10.8105 26.2917 10.8027 26.1017 10.9024C24.449 11.7692 21.9351 12.2471 19.0227 12.2471C16.1103 12.2471 13.5965 11.7692 11.9437 10.9024C11.7538 10.8027 11.5242 10.8105 11.3415 10.921C11.1575 11.032 11.0454 11.2319 11.0454 11.4468V11.6323C11.0454 13.6499 15.0586 14.7058 19.0227 14.7058C22.9868 14.7058 27 13.6499 27 11.6323V11.4468C26.9999 11.2319 26.8879 11.032 26.704 10.921Z" fill="url(#paint1_linear_4136_710)"/>
<path d="M3.68181 20.2382C3.68181 22.2559 7.69499 23.3117 11.6591 23.3117C15.6232 23.3117 19.6364 22.2558 19.6364 20.2382C19.6363 16.203 3.68181 16.203 3.68181 20.2382Z" fill="url(#paint2_linear_4136_710)"/>
<path d="M19.3403 23.2151C19.1569 23.1053 18.928 23.0969 18.7381 23.1966C17.0853 24.0634 14.5715 24.5412 11.6591 24.5412C8.74672 24.5412 6.23285 24.0634 4.58012 23.1966C4.39016 23.0969 4.16062 23.1053 3.97785 23.2151C3.79388 23.3262 3.68181 23.5261 3.68181 23.741V23.9265C3.68181 25.9441 7.69499 27 11.6591 27C15.6232 27 19.6364 25.9441 19.6364 23.9265V23.741C19.6363 23.5261 19.5243 23.3262 19.3403 23.2151Z" fill="url(#paint3_linear_4136_710)"/>
<path d="M7.97728 6.09998C8.80603 6.09998 9.63484 6.05315 10.4408 5.96013C10.572 5.94511 10.6949 5.8881 10.7914 5.79744C11.7208 4.92099 13.3088 4.27449 15.3835 3.92811C15.6028 3.89146 15.7856 3.73901 15.8605 3.52892C15.924 3.35184 15.9546 3.18737 15.9546 3.02646C15.9545 -1.00881 0 -1.00881 0 3.02641C0 5.04404 4.01318 6.09998 7.97728 6.09998Z" fill="url(#paint4_linear_4136_710)"/>
<path d="M7.97728 9.78818C8.48543 9.78818 8.98103 9.77075 9.46105 9.73893C9.65463 9.7257 9.83021 9.6225 9.93566 9.45917C10.0405 9.29648 10.0627 9.093 9.9956 8.9111C9.87635 8.58992 9.81824 8.27357 9.82124 7.91102C9.82124 7.74293 9.75232 7.58208 9.63064 7.46621C9.5096 7.35035 9.3388 7.28011 9.17818 7.29691C8.77727 7.31612 8.37635 7.3293 7.97728 7.3293C5.06491 7.3293 2.55104 6.85147 0.898305 5.98463C0.708346 5.88499 0.478808 5.89281 0.296041 6.00321C0.112065 6.11435 0 6.31426 0 6.52919V6.71466C0 8.7323 4.01318 9.78818 7.97728 9.78818Z" fill="url(#paint5_linear_4136_710)"/>
<path d="M7.97728 13.4764C8.48543 13.4764 8.98103 13.459 9.46105 13.4272C9.65463 13.414 9.83021 13.3108 9.93566 13.1474C10.0405 12.9847 10.0627 12.7813 9.9956 12.5994C9.87635 12.2782 9.81824 11.9618 9.81824 11.5993C9.81824 11.4312 9.74932 11.2703 9.62765 11.1545C9.50661 11.0386 9.3388 10.9726 9.17519 10.9852C8.77549 11.0044 8.37578 11.0176 7.97728 11.0176C5.06491 11.0176 2.55104 10.5397 0.898305 9.67289C0.708346 9.57325 0.478808 9.58108 0.296041 9.69147C0.112065 9.80262 0 10.0025 0 10.2174V10.4029C0 12.4205 4.01318 13.4764 7.97728 13.4764Z" fill="url(#paint6_linear_4136_710)"/>
<path d="M26.704 18.2974C26.52 18.1852 26.2917 18.1792 26.1017 18.2789C24.9469 18.8846 23.3223 19.3078 21.4042 19.5017C21.0806 19.5347 20.8499 19.9129 20.8636 20.2383C20.8636 20.5499 20.8133 20.8476 20.7102 21.1471C20.6419 21.3458 20.6796 21.5661 20.8103 21.7306C20.9278 21.8777 21.1046 21.9623 21.2903 21.9623C21.3119 21.9623 21.334 21.9611 21.3562 21.9587C24.89 21.5769 27 20.4742 27 19.0088V18.8233C26.9999 18.6084 26.8879 18.4085 26.704 18.2974Z" fill="url(#paint7_linear_4136_710)"/>
<path d="M11.6591 15.9353L12.066 15.9425C12.0696 15.9425 12.0732 15.9425 12.0768 15.9425C12.3632 15.9425 12.6119 15.7438 12.6754 15.4634C12.7396 15.1789 12.5958 14.8889 12.3309 14.7682L12.1996 14.7094C12.1121 14.671 12.0241 14.6325 11.9425 14.5899C11.7514 14.4896 11.5249 14.4987 11.3409 14.6097C11.1575 14.7207 11.0455 14.9201 11.0455 15.1349V15.3204C11.0454 15.6603 11.3199 15.9353 11.6591 15.9353Z" fill="url(#paint8_linear_4136_710)"/>
<path d="M26.704 14.6092C26.5212 14.4988 26.2917 14.491 26.1017 14.5907C24.449 15.4575 21.9351 15.9353 19.0227 15.9353L18.6176 15.9275C18.3701 15.9065 18.0741 16.1244 18.0111 16.4083C17.9476 16.6923 18.0914 16.9816 18.3557 17.1017C19.0203 17.4042 19.5633 17.7638 19.9689 18.1702C20.0846 18.2855 20.2404 18.3497 20.4028 18.3497C20.4154 18.3497 20.4286 18.3491 20.4418 18.3485C23.4668 18.1564 27 17.2481 27 15.3206V15.1351C26.9999 14.9202 26.8879 14.7203 26.704 14.6092Z" fill="url(#paint9_linear_4136_710)"/>
<path d="M5.13199 16.9738C5.20867 16.9738 5.28541 16.9594 5.3579 16.9306C6.43897 16.5026 7.75729 16.2078 9.27702 16.0548C9.60061 16.0224 9.83194 15.613 9.81813 15.2876C9.81813 15.1195 9.74921 14.9587 9.62754 14.8428C9.5065 14.7269 9.33869 14.6651 9.17508 14.6735C8.77537 14.6927 8.37566 14.7059 7.97716 14.7059C5.06479 14.7059 2.55092 14.2281 0.89819 13.3612C0.708231 13.2616 0.478693 13.2694 0.295926 13.3798C0.112065 13.4909 0 13.6907 0 13.9057V14.0911C0 15.4496 1.88647 16.5253 5.0469 16.9678C5.07509 16.972 5.10386 16.9738 5.13199 16.9738Z" fill="url(#paint10_linear_4136_710)"/>
<defs>
<linearGradient id="paint0_linear_4136_710" x1="0" y1="0" x2="20.1832" y2="6.6181" gradientUnits="userSpaceOnUse">
<stop stop-color="#784FED"/>
<stop offset="1" stop-color="#6B52F5"/>
</linearGradient>
<linearGradient id="paint1_linear_4136_710" x1="0" y1="0" x2="20.1832" y2="6.6181" gradientUnits="userSpaceOnUse">
<stop stop-color="#784FED"/>
<stop offset="1" stop-color="#6B52F5"/>
</linearGradient>
<linearGradient id="paint2_linear_4136_710" x1="0" y1="0" x2="20.1832" y2="6.6181" gradientUnits="userSpaceOnUse">
<stop stop-color="#784FED"/>
<stop offset="1" stop-color="#6B52F5"/>
</linearGradient>
<linearGradient id="paint3_linear_4136_710" x1="0" y1="0" x2="20.1832" y2="6.6181" gradientUnits="userSpaceOnUse">
<stop stop-color="#784FED"/>
<stop offset="1" stop-color="#6B52F5"/>
</linearGradient>
<linearGradient id="paint4_linear_4136_710" x1="0" y1="0" x2="20.1832" y2="6.6181" gradientUnits="userSpaceOnUse">
<stop stop-color="#784FED"/>
<stop offset="1" stop-color="#6B52F5"/>
</linearGradient>
<linearGradient id="paint5_linear_4136_710" x1="0" y1="0" x2="20.1832" y2="6.6181" gradientUnits="userSpaceOnUse">
<stop stop-color="#784FED"/>
<stop offset="1" stop-color="#6B52F5"/>
</linearGradient>
<linearGradient id="paint6_linear_4136_710" x1="0" y1="0" x2="20.1832" y2="6.6181" gradientUnits="userSpaceOnUse">
<stop stop-color="#784FED"/>
<stop offset="1" stop-color="#6B52F5"/>
</linearGradient>
<linearGradient id="paint7_linear_4136_710" x1="0" y1="0" x2="20.1832" y2="6.6181" gradientUnits="userSpaceOnUse">
<stop stop-color="#784FED"/>
<stop offset="1" stop-color="#6B52F5"/>
</linearGradient>
<linearGradient id="paint8_linear_4136_710" x1="0" y1="0" x2="20.1832" y2="6.6181" gradientUnits="userSpaceOnUse">
<stop stop-color="#784FED"/>
<stop offset="1" stop-color="#6B52F5"/>
</linearGradient>
<linearGradient id="paint9_linear_4136_710" x1="0" y1="0" x2="20.1832" y2="6.6181" gradientUnits="userSpaceOnUse">
<stop stop-color="#784FED"/>
<stop offset="1" stop-color="#6B52F5"/>
</linearGradient>
<linearGradient id="paint10_linear_4136_710" x1="0" y1="0" x2="20.1832" y2="6.6181" gradientUnits="userSpaceOnUse">
<stop stop-color="#784FED"/>
<stop offset="1" stop-color="#6B52F5"/>
</linearGradient>
</defs>
</svg>
