<svg width="27" height="27" viewBox="0 0 27 27" fill="none" xmlns="http://www.w3.org/2000/svg">
<path d="M17.0003 18.4996C17.0003 19.1626 17.2637 19.7985 17.7326 20.2673C18.2014 20.7361 18.8373 20.9995 19.5004 20.9995H24.0004V21.9995H19.5004C18.5721 21.9995 17.6818 21.6308 17.0254 20.9744C16.369 20.318 16.0003 19.4278 16.0003 18.4996C16.0003 17.5713 16.369 16.6811 17.0254 16.0248C17.6818 15.3684 18.5721 14.9997 19.5004 14.9997H24.0004V15.9996H19.5004C18.8373 15.9996 18.2014 16.263 17.7326 16.7318C17.2637 17.2007 17.0003 17.8365 17.0003 18.4996Z" fill="url(#paint0_linear_4171_993)"/>
<path d="M16.0003 5.99986H15.0003C14.9984 7.47734 15.5455 8.90282 16.5353 9.99977H18.0053C17.383 9.53497 16.8777 8.93138 16.5296 8.237C16.1815 7.54261 16.0003 6.7766 16.0003 5.99986ZM21.0004 3.31593e-06C19.8416 -0.00121529 18.7073 0.333468 17.7348 0.963541C16.7623 1.59361 15.9932 2.49206 15.5208 3.55013C15.0483 4.6082 14.8927 5.78053 15.0728 6.9252C15.2528 8.06988 15.7608 9.13782 16.5353 9.99977C16.8744 10.3827 17.2628 10.7189 17.6903 10.9997C18.5784 11.5896 19.6078 11.9317 20.6723 11.9906C21.7368 12.0495 22.7977 11.823 23.7454 11.3347C24.9419 10.719 25.8967 9.71902 26.4564 8.49537C27.0161 7.27172 27.1481 5.89546 26.8314 4.58769C26.5147 3.27993 25.7676 2.11659 24.7101 1.28456C23.6525 0.452528 22.346 0.000115631 21.0004 3.31593e-06ZM23.0854 10.5398C22.4323 10.8435 21.7207 11.0005 21.0004 10.9997C20.8704 10.9997 20.7404 10.9947 20.6154 10.9847C19.3604 10.8858 18.1887 10.318 17.3335 9.39429C16.4783 8.47055 16.0023 7.25867 16.0003 5.99986C15.9995 5.10219 16.2404 4.22086 16.6977 3.44839C17.1549 2.67592 17.8118 2.0408 18.5992 1.60972C19.3866 1.17863 20.2756 0.967475 21.1728 0.99842C22.0699 1.02937 22.9422 1.30127 23.6981 1.78558C24.4539 2.2699 25.0654 2.94876 25.4684 3.75091C25.8714 4.55305 26.0509 5.44889 25.9883 6.34437C25.9256 7.23985 25.623 8.10194 25.1122 8.84014C24.6015 9.57835 23.9014 10.1654 23.0854 10.5398Z" fill="url(#paint1_linear_4171_993)"/>
<path d="M24.5005 14.9997H19.5004C18.5721 14.9997 17.6818 15.3684 17.0254 16.0248C16.369 16.6811 16.0003 17.5713 16.0003 18.4996C16.0003 19.4278 16.369 20.318 17.0254 20.9744C17.6818 21.6308 18.5721 21.9995 19.5004 21.9995H24.5005C24.6331 21.9995 24.7602 21.9468 24.854 21.853C24.9478 21.7593 25.0005 21.6321 25.0005 21.4995V15.4996C25.0005 15.367 24.9478 15.2399 24.854 15.1461C24.7602 15.0523 24.6331 14.9997 24.5005 14.9997ZM20.5004 19.9995C20.2037 19.9995 19.9137 19.9116 19.667 19.7467C19.4203 19.5819 19.2281 19.3477 19.1145 19.0736C19.001 18.7995 18.9713 18.4979 19.0292 18.2069C19.087 17.916 19.2299 17.6487 19.4397 17.4389C19.6495 17.2292 19.9168 17.0863 20.2077 17.0284C20.4987 16.9706 20.8003 17.0003 21.0744 17.1138C21.3485 17.2273 21.5828 17.4196 21.7476 17.6662C21.9124 17.9129 22.0004 18.2029 22.0004 18.4996C21.9992 18.897 21.8408 19.2779 21.5597 19.5589C21.2787 19.8399 20.8978 19.9984 20.5004 19.9995Z" fill="url(#paint2_linear_4171_993)"/>
<path d="M24.0004 8.99979C23.8678 8.99979 23.7407 8.94712 23.6469 8.85335C23.5531 8.75958 23.5004 8.63241 23.5004 8.4998C23.499 7.1742 22.9717 5.90331 22.0343 4.96596C21.0969 4.02862 19.826 3.50138 18.5003 3.49992C18.3677 3.49992 18.2405 3.44724 18.1468 3.35348C18.053 3.25971 18.0003 3.13254 18.0003 2.99993C18.0003 2.86733 18.053 2.74015 18.1468 2.64639C18.2405 2.55262 18.3677 2.49994 18.5003 2.49994C20.0911 2.50167 21.6163 3.13434 22.7412 4.25916C23.866 5.38398 24.4987 6.90907 24.5005 8.4998C24.5005 8.63241 24.4478 8.75958 24.354 8.85335C24.2602 8.94712 24.1331 8.99979 24.0004 8.99979Z" fill="url(#paint3_linear_4171_993)"/>
<path d="M22.0004 8.99979C21.8678 8.99979 21.7406 8.94712 21.6468 8.85335C21.5531 8.75958 21.5004 8.63241 21.5004 8.4998C21.4996 7.70442 21.1833 6.94183 20.6208 6.37941C20.0584 5.81699 19.2958 5.50067 18.5003 5.49987C18.3677 5.49987 18.2405 5.4472 18.1468 5.35343C18.053 5.25967 18.0003 5.13249 18.0003 4.99989C18.0003 4.86728 18.053 4.74011 18.1468 4.64634C18.2405 4.55258 18.3677 4.4999 18.5003 4.4999C19.5609 4.50109 20.5776 4.92289 21.3275 5.67276C22.0774 6.42263 22.4992 7.43933 22.5004 8.4998C22.5004 8.63241 22.4477 8.75958 22.354 8.85335C22.2602 8.94712 22.133 8.99979 22.0004 8.99979Z" fill="url(#paint4_linear_4171_993)"/>
<path d="M20.0004 8.99979C19.8678 8.99979 19.7406 8.94712 19.6468 8.85335C19.553 8.75958 19.5004 8.63241 19.5004 8.4998C19.5004 8.23459 19.395 7.98025 19.2075 7.79271C19.0199 7.60518 18.7656 7.49983 18.5003 7.49983C18.3677 7.49983 18.2405 7.44715 18.1468 7.35339C18.053 7.25962 18.0003 7.13244 18.0003 6.99984C18.0003 6.86723 18.053 6.74006 18.1468 6.64629C18.2405 6.55253 18.3677 6.49985 18.5003 6.49985C19.0308 6.49985 19.5395 6.71056 19.9146 7.08562C20.2897 7.46069 20.5004 7.96938 20.5004 8.4998C20.5004 8.63241 20.4477 8.75958 20.3539 8.85335C20.2602 8.94712 20.133 8.99979 20.0004 8.99979Z" fill="url(#paint5_linear_4171_993)"/>
<path d="M19.5004 13.9997H24.0004V12.3797C24.0015 12.0159 23.914 11.6572 23.7454 11.3347C23.5854 11.0252 23.3602 10.754 23.0854 10.5398C22.4323 10.8435 21.7207 11.0005 21.0004 10.9997C20.8704 10.9997 20.7404 10.9947 20.6154 10.9847C19.669 10.913 18.7632 10.5711 18.0053 9.99977H3.00006C2.83118 10.0013 2.66291 9.97942 2.50005 9.93477C2.03004 9.81194 1.6208 9.52225 1.34875 9.11979C1.07671 8.71733 0.960447 8.22961 1.02168 7.74771C1.08292 7.26581 1.31746 6.82267 1.68152 6.50103C2.04558 6.17939 2.51426 6.00125 3.00006 5.99986H16.0003C16.0001 5.66403 16.0336 5.32903 16.1003 4.99989H3.00006C2.20439 4.99989 1.44132 5.31595 0.878696 5.87855C0.316076 6.44114 0 7.20419 0 7.99982V24.9994C0.00158276 25.5294 0.212809 26.0371 0.587546 26.4119C0.962283 26.7866 1.47008 26.9978 2.00004 26.9994H21.5004C22.1472 27.014 22.7734 26.7718 23.242 26.3257C23.7106 25.8797 23.9833 25.2661 24.0004 24.6194V22.9995H19.6609C18.5008 23.0148 17.3775 22.5921 16.5155 21.8155C15.6535 21.039 15.1162 19.9659 15.0108 18.8106C14.969 18.1951 15.0541 17.5776 15.2607 16.9963C15.4674 16.4151 15.7912 15.8824 16.2121 15.4314C16.633 14.9804 17.142 14.6206 17.7076 14.3743C18.2733 14.128 18.8834 14.0005 19.5004 13.9997Z" fill="url(#paint6_linear_4171_993)"/>
<defs>
<linearGradient id="paint0_linear_4171_993" x1="0" y1="0" x2="20.1832" y2="6.6181" gradientUnits="userSpaceOnUse">
<stop stop-color="#784FED"/>
<stop offset="1" stop-color="#6B52F5"/>
</linearGradient>
<linearGradient id="paint1_linear_4171_993" x1="0" y1="0" x2="20.1832" y2="6.6181" gradientUnits="userSpaceOnUse">
<stop stop-color="#784FED"/>
<stop offset="1" stop-color="#6B52F5"/>
</linearGradient>
<linearGradient id="paint2_linear_4171_993" x1="0" y1="0" x2="20.1832" y2="6.6181" gradientUnits="userSpaceOnUse">
<stop stop-color="#784FED"/>
<stop offset="1" stop-color="#6B52F5"/>
</linearGradient>
<linearGradient id="paint3_linear_4171_993" x1="0" y1="0" x2="20.1832" y2="6.6181" gradientUnits="userSpaceOnUse">
<stop stop-color="#784FED"/>
<stop offset="1" stop-color="#6B52F5"/>
</linearGradient>
<linearGradient id="paint4_linear_4171_993" x1="0" y1="0" x2="20.1832" y2="6.6181" gradientUnits="userSpaceOnUse">
<stop stop-color="#784FED"/>
<stop offset="1" stop-color="#6B52F5"/>
</linearGradient>
<linearGradient id="paint5_linear_4171_993" x1="0" y1="0" x2="20.1832" y2="6.6181" gradientUnits="userSpaceOnUse">
<stop stop-color="#784FED"/>
<stop offset="1" stop-color="#6B52F5"/>
</linearGradient>
<linearGradient id="paint6_linear_4171_993" x1="0" y1="0" x2="20.1832" y2="6.6181" gradientUnits="userSpaceOnUse">
<stop stop-color="#784FED"/>
<stop offset="1" stop-color="#6B52F5"/>
</linearGradient>
</defs>
</svg>
